<svg width="546" height="376" viewBox="0 0 546 376" fill="none" xmlns="http://www.w3.org/2000/svg">
<path opacity="0.1" d="M168.921 19.4581C187.39 2.82208 216.384 -0.565434 242.773 0.758477C325.661 4.91867 400.483 45.3238 465.204 91.0294C488.634 107.576 511.701 125.423 526.924 148.193C557.887 194.577 548.7 258.836 505.651 297.046C491.004 310.049 473.246 320.014 455.018 328.853C422.608 344.561 387.644 357.168 350.853 360.758C324.62 363.317 298.085 361.23 271.984 357.668C199.121 347.689 127.602 325.63 67.6538 287.873C41.3499 271.317 16.5678 250.733 5.73157 223.934C-5.10471 197.135 1.83051 163.208 28.6762 147.354C39.781 140.796 53.0531 137.837 66.0519 135.053C85.185 130.963 104.62 126.926 121.887 118.605C139.72 110.012 160.832 93.3898 157.303 74.3651C153.515 53.9693 150.476 36.0423 168.921 19.4581Z" fill="#FFAB2B"/>
<path d="M121.778 211.482C121.778 211.482 126.664 207.981 131.719 210.144C131.719 210.144 130.306 213.15 124.007 213.112L121.778 211.482Z" fill="#FFAB2B"/>
<path d="M121.171 211.684C121.171 211.684 119.866 217.55 123.842 221.357C123.842 221.357 126.047 218.874 123.541 213.098L121.171 211.684Z" fill="#FFAB2B"/>
<path d="M114.712 206.346C114.712 206.346 114.891 201.395 126.104 202.605C126.104 202.605 126.278 205.79 122.425 207.449C118.571 209.107 116.724 207.915 114.712 206.346Z" fill="#FFAB2B"/>
<path d="M114.019 206.337C114.019 206.337 109.359 208.033 113.967 218.332C113.967 218.332 117.048 217.517 117.439 213.338C117.831 209.159 116.125 207.778 114.019 206.337Z" fill="#FFAB2B"/>
<path d="M107.437 199.576C107.437 199.576 106.495 191.472 117.915 191.868C117.915 191.868 119.003 199.194 109.524 201.451L107.437 199.576Z" fill="#FFAB2B"/>
<path d="M99.5547 190.69C99.5547 190.69 100.766 181.423 112.276 183.727C112.276 183.727 112.624 191.689 101.515 192.815L99.5547 190.69Z" fill="#FFAB2B"/>
<path d="M93.6895 181.413C93.6895 181.413 95.9604 172.325 107.353 174.596C107.353 174.596 104.997 182.77 94.5045 183.044L93.6895 181.413Z" fill="#FFAB2B"/>
<path d="M88.1064 172.353C88.1064 172.353 90.3067 162.93 101.298 165.324C101.298 165.324 98.0004 174.309 88.8744 173.913L88.1064 172.353Z" fill="#FFAB2B"/>
<path d="M84.3984 163.684C84.3984 163.684 85.9297 152.221 96.177 154.351C96.177 154.351 93.6234 164.824 85.1994 165.31L84.3984 163.684Z" fill="#FFAB2B"/>
<path d="M80.832 153.173C80.832 153.173 82.7496 141.607 93.1524 144.551C93.1524 144.551 89.534 155.552 81.6094 154.733L80.832 153.173Z" fill="#FFAB2B"/>
<path d="M78.4951 143.369C78.4951 143.369 81.7931 131.75 89.7648 131.755C89.7648 131.755 86.3962 144.005 79.2489 145.644L78.4951 143.369Z" fill="#FFAB2B"/>
<path d="M76.8838 133.748C76.8838 133.748 80.4315 119.774 86.9427 120.594C86.9427 120.594 84.5257 131.26 77.1947 135.892L76.8838 133.748Z" fill="#FFAB2B"/>
<path d="M75.7383 122.243C75.7383 122.243 79.1164 110.586 85.4862 109.88C85.4862 109.88 83.319 121.305 75.9927 125.23L75.7383 122.243Z" fill="#FFAB2B"/>
<path d="M74.5518 111.538C74.5518 111.538 78.8768 99.8303 83.0889 99.4062C83.0889 99.4062 81.454 110.831 75.0465 113.413L74.5518 111.538Z" fill="#FFAB2B"/>
<path d="M73.6416 101.559C73.6416 101.559 76.0915 88.9281 80.2659 87.7314C80.2659 87.7314 80.0821 97.9882 74.0986 102.478L73.6416 101.559Z" fill="#FFAB2B"/>
<path d="M71.5547 88.5371C71.5547 88.5371 74.2543 78.4452 77.6089 76.7915C77.6089 76.7915 77.3827 88.5701 72.4263 90.9258L71.5547 88.5371Z" fill="#FFAB2B"/>
<path d="M69.906 79.9905L68.6104 62.4263C68.6104 62.4263 75.489 75.4581 70.4949 83.0764L69.906 79.9905Z" fill="#FFAB2B"/>
<path d="M64.2993 62.6996C64.2993 62.6996 59.2157 50.0305 58.085 49.3568C58.085 49.3568 67.4136 57.3662 66.9424 68.0989L64.2993 62.6996Z" fill="#FFAB2B"/>
<path d="M107.126 199.529C107.126 199.529 98.9992 198.78 99.6824 210.191C99.6824 210.191 107.032 211.1 109.053 201.564L107.126 199.529Z" fill="#FFAB2B"/>
<path d="M99.1643 190.398C99.1643 190.398 89.8262 190.723 91.0323 202.384C91.0323 202.384 98.924 203.486 101.096 192.532L99.1643 190.398Z" fill="#FFAB2B"/>
<path d="M93.628 182.177C93.628 182.177 84.9966 178.525 79.9648 188.994C79.9648 188.994 87.9224 192.005 94.4383 183.811L93.628 182.177Z" fill="#FFAB2B"/>
<path d="M87.9181 172.447C87.9181 172.447 79.0794 168.546 74.3633 178.77C74.3633 178.77 83.527 181.536 88.6954 174.002L87.9181 172.447Z" fill="#FFAB2B"/>
<path d="M84.5163 163.925C84.5163 163.925 75.8567 156.264 69.501 164.594C69.501 164.594 78.2878 170.832 84.9686 165.687L84.5163 163.925Z" fill="#FFAB2B"/>
<path d="M81.293 152.881C81.293 152.881 72.5769 145.041 66.2871 153.823C66.2871 153.823 75.9785 160.16 81.6605 154.572L81.293 152.881Z" fill="#FFAB2B"/>
<path d="M79.3433 142.996C79.3433 142.996 72.4787 133.055 64.9404 135.618C64.9404 135.618 72.0735 146.153 79.3621 145.395L79.3433 142.996Z" fill="#FFAB2B"/>
<path d="M77.0771 133.677C77.0771 133.677 70.0523 121.088 63.9746 123.552C63.9746 123.552 69.0535 133.239 77.3221 135.826L77.0771 133.677Z" fill="#FFAB2B"/>
<path d="M76.1577 121.569C76.1577 121.569 69.0623 111.722 62.8291 113.197C62.8291 113.197 68.7042 123.232 76.921 124.471L76.1577 121.569Z" fill="#FFAB2B"/>
<path d="M75.2536 111.284C75.2536 111.284 69.6234 100.146 65.3926 100.207C65.3926 100.207 68.3184 111.373 74.9756 113.201L75.2536 111.284Z" fill="#FFAB2B"/>
<path d="M73.8404 101.305C73.8404 101.305 67.6213 90.0447 63.2773 90.186C63.2773 90.186 66.613 99.8915 73.6849 102.323L73.8404 101.305Z" fill="#FFAB2B"/>
<path d="M72.5064 89.1872C72.5064 89.1872 67.8186 79.8492 64.2002 78.9116C64.2002 78.9116 66.8056 90.4075 72.1248 91.7267L72.5064 89.1872Z" fill="#FFAB2B"/>
<path d="M69.3783 79.6796L59.1592 65.338C59.1592 65.338 62.1886 79.7644 70.8953 82.4311L69.3783 79.6796Z" fill="#FFAB2B"/>
<path d="M62.1368 63.967C62.1368 63.967 50.6362 56.6501 50.165 55.411C50.165 55.411 56.2899 66.0494 66.966 67.5571L62.1368 63.967Z" fill="#FFAB2B"/>
<path d="M61.3308 60.5088C61.3308 60.5088 47.9692 48.6125 44.6807 48.7538C44.6807 48.7538 55.3285 48.8292 61.6418 59.8398L61.3308 60.5088Z" fill="#FFAB2B"/>
<path d="M72.4502 91.0718L71.9791 91.1519C68.8319 72.2827 64.8696 61.2155 60.8271 59.9812L60.9638 59.51C65.2418 60.8104 69.2276 71.7173 72.4502 91.0718Z" fill="#444053"/>
<path d="M77.7502 136.245L77.0435 136.33C76.8268 134.568 76.6383 132.758 76.4923 130.959C75.2155 115.293 73.6136 100.923 71.8232 90.1719L72.2143 89.6489C74.0093 100.419 75.9222 115.213 77.2037 130.902C77.3497 132.693 77.5335 134.488 77.7502 136.245Z" fill="#444053"/>
<path d="M135.362 220C135.234 219.948 122.532 214.85 109.058 202.045C101.167 194.549 94.5134 185.851 89.3452 176.273C82.8858 164.301 78.6597 149.442 76.874 134.921L77.6279 135.241C81.6326 167.835 97.3781 189.621 109.666 201.329C123.008 214.021 135.578 219.067 135.696 219.114L135.362 220Z" fill="#444053"/>
<g opacity="0.7">
<path d="M141.491 181.63C141.491 181.63 147.197 179.746 151.385 183.312C151.385 183.312 149.138 185.762 143.135 183.849L141.491 181.63Z" fill="#FFAB2B"/>
<path d="M140.851 181.64C140.851 181.64 137.864 186.855 140.526 191.665C140.526 191.665 143.353 189.955 142.698 183.694L140.851 181.64Z" fill="#FFAB2B"/>
<path d="M136.267 174.624C136.267 174.624 137.916 169.95 148.257 174.44C148.257 174.44 147.48 177.536 143.301 177.969C139.122 178.403 137.727 176.711 136.267 174.624Z" fill="#FFAB2B"/>
<path d="M135.612 174.412C135.612 174.412 130.665 174.648 131.993 185.847C131.993 185.847 135.183 185.988 136.799 182.111C138.415 178.233 137.195 176.41 135.612 174.412Z" fill="#FFAB2B"/>
<path d="M131.343 165.983C131.343 165.983 132.846 157.974 143.635 161.743C143.635 161.743 142.499 169.06 132.775 168.396L131.343 165.983Z" fill="#FFAB2B"/>
<path d="M126.462 155.147C126.462 155.147 130.372 146.667 140.662 152.283C140.662 152.283 138.627 159.986 127.682 157.757L126.462 155.147Z" fill="#FFAB2B"/>
<path d="M123.616 144.57C123.616 144.57 128.493 136.561 138.693 142.125C138.693 142.125 133.981 149.22 123.913 146.365L123.616 144.57Z" fill="#FFAB2B"/>
<path d="M120.982 134.257C120.982 134.257 125.882 125.927 135.677 131.472C135.677 131.472 129.859 139.067 121.265 135.976L120.982 134.257Z" fill="#FFAB2B"/>
<path d="M120.021 124.876C120.021 124.876 124.893 114.389 134.052 119.477C134.052 119.477 128.497 128.711 120.314 126.671L120.021 124.876Z" fill="#FFAB2B"/>
<path d="M119.748 113.781C119.748 113.781 125.02 103.307 134.071 109.216C134.071 109.216 127.348 118.638 120.026 115.501L119.748 113.781Z" fill="#FFAB2B"/>
<path d="M120.441 103.713C120.441 103.713 127.037 93.6019 134.651 95.9764C134.651 95.9764 127.787 106.685 120.479 106.111L120.441 103.713Z" fill="#FFAB2B"/>
<path d="M121.779 94.0588C121.779 94.0588 129.317 81.7761 135.296 84.4946C135.296 84.4946 129.812 93.9599 121.439 96.1978L121.779 94.0588Z" fill="#FFAB2B"/>
<path d="M124.083 82.7372C124.083 82.7372 130.783 72.6124 137.068 73.8327C137.068 73.8327 131.603 84.0988 123.442 85.663L124.083 82.7372Z" fill="#FFAB2B"/>
<path d="M126.142 72.1601C126.142 72.1601 133.751 62.2661 137.897 63.1236C137.897 63.1236 132.936 73.5453 126.053 74.0965L126.142 72.1601Z" fill="#FFAB2B"/>
<path d="M128.238 62.3651C128.238 62.3651 134.335 51.0577 138.679 51.1331C138.679 51.1331 135.447 60.8716 128.403 63.3828L128.238 62.3651Z" fill="#FFAB2B"/>
<path d="M130.118 49.3097C130.118 49.3097 135.701 40.4805 139.395 39.8868C139.395 39.8868 135.673 51.0718 130.245 51.8586L130.118 49.3097Z" fill="#FFAB2B"/>
<path d="M131.089 40.6595L135.079 23.5005C135.079 23.5005 137.769 37.9881 130.73 43.7596L131.089 40.6595Z" fill="#FFAB2B"/>
<path d="M130.89 22.4876C130.89 22.4876 129.802 8.88102 128.926 7.8822C128.926 7.8822 135.456 18.285 131.809 28.4146L130.89 22.4876Z" fill="#FFAB2B"/>
<path d="M131.056 165.856C131.056 165.856 123.518 162.728 120.78 173.828C120.78 173.828 127.522 176.881 132.29 168.377L131.056 165.856Z" fill="#FFAB2B"/>
<path d="M126.17 154.77C126.17 154.77 117.157 152.306 114.839 163.797C114.839 163.797 122.047 167.199 127.381 157.385L126.17 154.77Z" fill="#FFAB2B"/>
<path d="M123.333 145.277C123.333 145.277 116.181 139.223 108.257 147.722C108.257 147.722 114.956 152.966 123.621 147.072L123.333 145.277Z" fill="#FFAB2B"/>
<path d="M120.78 134.29C120.78 134.29 113.496 127.939 105.958 136.292C105.958 136.292 113.883 141.663 121.058 136.009L120.78 134.29Z" fill="#FFAB2B"/>
<path d="M120.069 125.145C120.069 125.145 114.076 115.251 105.529 121.31C105.529 121.31 112.064 129.884 119.975 126.963L120.069 125.145Z" fill="#FFAB2B"/>
<path d="M120.276 113.639C120.276 113.639 114.283 103.562 105.671 110.082C105.671 110.082 113.04 119.034 120.121 115.373L120.276 113.639Z" fill="#FFAB2B"/>
<path d="M121.35 103.618C121.35 103.618 117.755 92.0895 109.798 92.3109C109.798 92.3109 113.473 104.495 120.658 105.936L121.35 103.618Z" fill="#FFAB2B"/>
<path d="M121.958 94.0494C121.958 94.0494 119 79.9387 112.465 80.4852C112.465 80.4852 114.434 91.2461 121.558 96.179L121.958 94.0494Z" fill="#FFAB2B"/>
<path d="M124.691 82.219C124.691 82.219 120.847 70.7043 114.453 70.2567C114.453 70.2567 117.077 81.5877 124.554 85.2155L124.691 82.219Z" fill="#FFAB2B"/>
<path d="M126.886 72.1272C126.886 72.1272 124.822 59.8209 120.761 58.6195C120.761 58.6195 120.238 70.1484 126.047 73.8798L126.886 72.1272Z" fill="#FFAB2B"/>
<path d="M128.503 62.1813C128.503 62.1813 125.916 49.5782 121.728 48.424C121.728 48.424 122.024 58.6807 128.055 63.1048L128.503 62.1813Z" fill="#FFAB2B"/>
<path d="M130.829 50.2331C130.829 50.2331 129.133 39.9245 125.958 37.9504C125.958 37.9504 125.015 49.7007 129.727 52.5559L130.829 50.2331Z" fill="#FFAB2B"/>
<path d="M130.679 40.1884L125.185 23.4534C125.185 23.4534 123.772 38.1247 131.31 43.2649L130.679 40.1884Z" fill="#FFAB2B"/>
<path d="M128.441 23.053C128.441 23.053 119.617 12.636 119.551 11.3215C119.551 11.3215 122.25 23.3027 131.975 27.9152L128.441 23.053Z" fill="#FFAB2B"/>
<path d="M128.7 19.5147C128.7 19.5147 119.48 4.17899 116.3 3.33093C116.3 3.33093 126.439 6.5771 129.171 18.954L128.7 19.5147Z" fill="#FFAB2B"/>
<path d="M130.227 51.967L129.756 51.901C132.361 32.9564 131.876 21.2061 128.38 18.8268L128.648 18.4358C132.356 20.9658 132.898 32.5606 130.227 51.967Z" fill="#444053"/>
<path d="M121.841 96.7255L121.139 96.5983C121.459 94.8503 121.817 93.0694 122.213 91.3026C125.657 75.9669 128.404 61.7761 129.888 50.9775L130.42 50.5912C128.931 61.4275 126.354 76.1036 122.91 91.4628C122.514 93.1919 122.156 94.9634 121.841 96.7255Z" fill="#444053"/>
<path d="M151.932 193.804C151.828 193.72 141.218 185.074 132.144 168.834C126.841 159.331 123.079 149.047 120.997 138.365C118.391 125.013 118.773 109.569 121.393 95.1754L122.015 95.7031C116.149 128.014 124.7 153.503 132.964 168.339C141.916 184.424 152.413 192.98 152.521 193.065L151.932 193.804Z" fill="#444053"/>
</g>
<path d="M478.74 355.793C478.74 355.793 458.82 354.591 461.171 368.551C461.171 368.551 460.7 371.015 462.938 372.137C462.938 372.137 462.976 371.1 464.983 371.453C465.697 371.574 466.423 371.608 467.145 371.557C468.123 371.489 469.052 371.105 469.793 370.464C469.793 370.464 475.39 368.151 477.567 359.001C477.567 359.001 479.178 357.003 479.117 356.49L475.753 357.903C475.753 357.903 476.903 360.33 475.998 362.342C475.998 362.342 475.89 357.993 475.244 358.101C475.112 358.125 473.496 358.945 473.496 358.945C473.496 358.945 475.475 363.185 473.968 366.238C473.968 366.238 474.533 361.032 472.865 359.246L470.509 360.631C470.509 360.631 472.818 364.994 471.254 368.551C471.254 368.551 471.654 363.091 470.01 360.966L467.866 362.638C467.866 362.638 470.038 366.94 468.714 369.889C468.714 369.889 468.54 363.534 467.405 363.053C467.405 363.053 465.52 364.707 465.242 365.409C465.242 365.409 466.726 368.528 465.807 370.177C465.807 370.177 465.242 365.936 464.776 365.936C464.776 365.936 462.891 368.74 462.712 370.648C462.712 370.648 462.792 367.788 464.323 365.654C463.246 365.856 462.251 366.371 461.463 367.133C461.463 367.133 461.756 365.15 464.761 364.975C464.761 364.975 466.307 362.85 466.721 362.718C466.721 362.718 463.701 362.469 461.873 363.279C461.873 363.279 463.485 361.395 467.273 362.257L469.388 360.528C469.388 360.528 465.416 359.986 463.734 360.584C463.734 360.584 465.671 358.93 469.958 360.137L472.262 358.761C472.262 358.761 468.879 358.031 466.863 358.29C466.863 358.29 468.992 357.14 472.941 358.384L474.59 357.644C474.59 357.644 472.107 357.173 471.381 357.079C470.655 356.985 470.618 356.801 470.618 356.801C472.187 356.539 473.799 356.718 475.273 357.319C475.273 357.319 478.802 356.014 478.74 355.793Z" fill="#FFAB2B"/>
<path opacity="0.1" d="M465.02 375.736C472.806 375.736 479.117 374.669 479.117 373.352C479.117 372.035 472.806 370.968 465.02 370.968C457.235 370.968 450.924 372.035 450.924 373.352C450.924 374.669 457.235 375.736 465.02 375.736Z" fill="#FFAB2B"/>
<path d="M516.949 319.01C516.949 319.01 505.722 318.337 507.055 326.205C506.914 327.023 507.316 327.838 508.049 328.226C508.049 328.226 508.073 327.642 509.204 327.84C509.606 327.91 510.016 327.93 510.424 327.901C510.974 327.864 511.497 327.647 511.913 327.284C511.913 327.284 515.069 325.979 516.299 320.82C516.299 320.82 517.208 319.694 517.171 319.406L515.286 320.217C515.286 320.217 515.932 321.583 515.423 322.718C515.423 322.718 515.362 320.264 514.999 320.325C514.923 320.325 514.014 320.796 514.014 320.796C514.014 320.796 515.126 323.18 514.287 324.909C514.287 324.909 514.608 321.974 513.665 320.97L512.332 321.748C512.332 321.748 513.632 324.207 512.751 326.214C512.751 326.214 512.978 323.138 512.049 321.936L510.843 322.879C510.843 322.879 512.064 325.305 511.314 326.968C511.314 326.968 511.216 323.387 510.575 323.114C510.117 323.502 509.707 323.943 509.354 324.429C509.354 324.429 510.193 326.191 509.675 327.119C509.675 327.119 509.354 324.73 509.095 324.721C509.095 324.721 508.04 326.304 507.932 327.387C507.982 326.382 508.296 325.407 508.841 324.561C508.232 324.675 507.671 324.965 507.225 325.394C507.225 325.394 507.39 324.278 509.11 324.179C509.11 324.179 509.981 322.978 510.212 322.907C510.212 322.907 508.511 322.766 507.479 323.223C507.479 323.223 508.389 322.167 510.523 322.643L511.72 321.672C511.72 321.672 509.477 321.366 508.53 321.705C508.53 321.705 509.623 320.763 512.04 321.451L513.34 320.674C512.34 320.455 511.315 320.366 510.292 320.41C510.292 320.41 511.493 319.764 513.717 320.466L514.66 320.047C514.66 320.047 513.246 319.774 512.85 319.731C512.455 319.689 512.417 319.571 512.417 319.571C513.303 319.424 514.213 319.525 515.046 319.863C515.046 319.863 516.982 319.138 516.949 319.01Z" fill="#FFAB2B"/>
<path opacity="0.1" d="M509.218 330.257C513.607 330.257 517.166 329.656 517.166 328.914C517.166 328.172 513.607 327.571 509.218 327.571C504.828 327.571 501.27 328.172 501.27 328.914C501.27 329.656 504.828 330.257 509.218 330.257Z" fill="#FFAB2B"/>
<path d="M450.664 325.842C450.664 325.842 437.105 325.022 438.707 334.525C438.536 335.513 439.021 336.499 439.908 336.966C439.908 336.966 439.908 336.264 441.298 336.495C441.785 336.576 442.28 336.601 442.773 336.57C443.437 336.522 444.068 336.261 444.572 335.826C444.572 335.826 448.384 334.252 449.868 328.019C449.868 328.019 450.966 326.662 450.919 326.313L448.634 327.288C448.634 327.288 449.416 328.942 448.799 330.313C448.799 330.313 448.728 327.35 448.285 327.42C448.196 327.42 447.098 327.991 447.098 327.991C447.098 327.991 448.441 330.869 447.428 332.956C447.428 332.956 447.814 329.413 446.678 328.198L445.067 329.14C445.067 329.14 446.636 332.108 445.571 334.535C445.571 334.535 445.845 330.817 444.728 329.352L443.267 330.488C443.267 330.488 444.747 333.413 443.847 335.425C443.847 335.425 443.729 331.1 442.952 330.77C442.952 330.77 441.675 331.896 441.482 332.358C441.482 332.358 442.49 334.483 441.863 335.604C441.863 335.604 441.482 332.725 441.166 332.711C441.166 332.711 439.894 334.619 439.753 335.929C439.816 334.719 440.195 333.547 440.85 332.528C440.117 332.667 439.441 333.017 438.905 333.536C438.905 333.536 439.102 332.184 441.166 332.066C441.166 332.066 442.217 330.619 442.499 330.53C442.499 330.53 440.445 330.36 439.201 330.912C439.201 330.912 440.294 329.635 442.872 330.214L444.313 329.041C444.313 329.041 441.614 328.669 440.464 329.079C440.464 329.079 441.783 327.953 444.704 328.773L446.273 327.83C446.273 327.83 443.969 327.331 442.594 327.51C442.594 327.51 444.045 326.733 446.73 327.576L447.856 327.114C447.856 327.114 446.17 326.784 445.675 326.733C445.18 326.681 445.157 326.544 445.157 326.544C446.226 326.366 447.324 326.488 448.327 326.897C448.327 326.897 450.707 325.993 450.664 325.842Z" fill="#FFAB2B"/>
<path opacity="0.1" d="M441.327 339.416C446.627 339.416 450.924 338.69 450.924 337.795C450.924 336.9 446.627 336.174 441.327 336.174C436.026 336.174 431.729 336.9 431.729 337.795C431.729 338.69 436.026 339.416 441.327 339.416Z" fill="#FFAB2B"/>
<path opacity="0.1" d="M337.265 330.77L290.005 349.055L220.926 375.755C218.321 370.916 214.476 364.297 209.717 356.438C193.359 329.324 166.288 287.152 142.193 250.092C115.037 208.334 91.668 173.074 91.668 173.074L108.587 168.17L246.782 128.089L337.265 330.77Z" fill="black"/>
<path d="M338.208 327.472L290.947 345.757L221.868 372.457C219.263 367.618 215.418 360.999 210.66 353.14C194.302 326.026 167.23 283.854 143.136 246.794C115.979 205.036 92.6104 169.776 92.6104 169.776L109.529 164.872L247.725 124.792L338.208 327.472Z" fill="white"/>
<path opacity="0.1" d="M338.208 327.472L290.947 345.757C264.552 351.256 237.616 353.732 210.66 353.14C194.302 326.026 167.23 283.854 143.136 246.794L109.529 164.872L247.725 124.792L338.208 327.472Z" fill="black"/>
<path d="M373.368 316.099C373.368 316.099 299.946 359.529 190.33 349.729L102.933 136.683L144.812 129.489L289.585 104.627L371.729 311.981L373.368 316.099Z" fill="#FFAB2B"/>
<path opacity="0.1" d="M371.73 311.981C354.439 312.829 334.443 312.749 314.316 310.351C292.54 307.797 270.66 302.511 251.861 292.834C236.163 284.744 222.74 275.958 211.032 265.409C180.592 238.026 161.751 198.855 144.832 129.489L289.605 104.627L371.73 311.981Z" fill="black"/>
<path d="M425.586 300.071C425.586 300.071 371.442 310.681 316.385 304.146C294.608 301.578 272.705 296.306 253.93 286.629C238.231 278.539 224.809 269.753 213.101 259.204C175.409 225.281 155.522 173.352 135.009 68.4334C135.009 68.4334 224.997 90.1483 313.906 42.5818C313.906 42.5818 343.895 229.753 425.586 300.071Z" fill="white"/>
<path opacity="0.1" d="M316.384 304.146C294.608 301.578 272.705 296.306 253.93 286.629C238.231 278.539 224.808 269.753 213.101 259.204C245.181 256.598 249.793 239.058 249.793 239.058C273.576 276.806 316.384 304.146 316.384 304.146Z" fill="black"/>
<path opacity="0.3" d="M181.543 106.954C181.543 106.954 229.882 112.471 275.126 87.0482L278.226 97.0035C278.226 97.0035 234.942 118.586 181.543 118.586V106.954Z" fill="#FFAB2B"/>
<path opacity="0.3" d="M181.543 156.09C181.543 156.09 229.6 152.212 283.098 126.356L284.907 130.492C284.907 130.492 265.218 155.27 181.543 161.743V156.09Z" fill="black"/>
<path opacity="0.3" d="M187.239 175.256C187.239 175.256 235.296 171.378 288.794 145.526L290.603 149.663C290.603 149.663 270.919 174.464 187.239 180.942V175.256Z" fill="black"/>
<path opacity="0.3" d="M192.45 195.915C192.45 195.915 240.507 192.038 294.005 166.186L295.814 170.323C295.814 170.323 276.102 195.109 192.45 201.602V195.915Z" fill="black"/>
<path opacity="0.3" d="M198.636 213.621C198.636 213.621 246.692 209.743 300.191 183.892L302 188.028C302 188.028 282.315 212.82 198.636 219.312L198.636 213.621Z" fill="black"/>
<path opacity="0.1" d="M204.337 232.806C204.337 232.806 252.393 228.928 305.892 203.077L307.701 207.213C307.701 207.213 288.012 232.005 204.337 238.492V232.806Z" fill="black"/>
<path opacity="0.3" d="M291.036 118.032L304.483 113.454L309.061 126.901L295.614 131.479L291.036 118.032Z" fill="#FFAB2B"/>
<path opacity="0.3" d="M298.686 138.037L312.133 133.459L316.71 146.906L303.263 151.484L298.686 138.037Z" fill="#FFAB2B"/>
<path opacity="0.3" d="M310.95 176.529L324.397 171.951L328.975 185.398L315.528 189.976L310.95 176.529Z" fill="#FFAB2B"/>
<path opacity="0.3" d="M317.986 197.188L331.433 192.61L336.011 206.058L322.564 210.635L317.986 197.188Z" fill="#FFAB2B"/>
<path opacity="0.3" d="M304.924 158.819L318.371 154.241L322.949 167.688L309.502 172.266L304.924 158.819Z" fill="#FFAB2B"/>
<path d="M458.975 212.311L458.471 211.84C459.771 211.576 460.996 211.458 460.996 211.458C460.996 211.458 456.535 195.317 449.011 189.932C445.288 187.27 442.188 182.836 439.998 179.034C436.004 172.159 431.518 165.582 426.575 159.354L425.218 157.644L424.634 156.9C425.449 155.665 426.448 154.492 426.334 153.06C426.332 153.051 426.332 153.041 426.334 153.032C426.339 152.956 426.339 152.881 426.334 152.806C426.321 152.629 426.289 152.453 426.24 152.283L426.188 152.363C425.552 150.516 423.107 149.701 421.293 148.683C417.053 146.294 415.239 141.074 414.334 136.221C413.628 132.452 413.043 128.212 410.094 125.786C408.21 124.226 405.647 123.713 403.748 122.162C401.948 120.692 400.945 118.464 399.814 116.415C397.929 112.999 395.442 109.819 392.158 107.778C388.874 105.738 384.704 104.952 381.1 106.318C379.72 106.846 378.466 107.665 377.1 108.235C373.708 109.649 369.821 109.46 366.462 110.954C362.325 112.791 359.635 116.853 357.175 120.707C355.903 122.7 353.906 125.616 352.77 128.551C352.77 128.448 352.77 128.349 352.77 128.245C352.226 129.538 351.928 130.922 351.894 132.325C351.872 132.922 351.937 133.519 352.087 134.097C352.596 135.981 354.113 137.022 355.913 137.748C356.017 138.347 356.155 138.94 356.327 139.524C357.98 144.965 362.183 149.257 367.588 151.025C367.743 151.081 367.903 151.119 368.059 151.166C368.19 151.539 368.379 151.889 368.619 152.203C370.122 154.087 373.138 153.55 375.098 152.179C375.178 152.127 375.253 152.061 375.329 152.005C375.342 152.271 375.37 152.537 375.413 152.801C375.456 153.027 375.489 153.272 375.536 153.475C377.303 162.996 381.826 168.137 381.826 168.137C381.826 168.137 382.245 168.768 382.928 169.814C382.57 175.067 384.968 179.854 387.738 183.552C385.35 184.933 380.2 187.637 377.015 187.411C377.015 187.411 365.312 188.923 363.955 188.165C363.767 188.061 363.588 188.203 363.418 188.523C360.195 186.558 349.892 180.895 349.011 188.165C348.214 194.761 357.604 195.604 362.075 195.637C361.873 197.569 361.76 199.114 361.76 199.114L380.987 197.8L390.999 196.325C389.892 197.79 388.643 199.095 387.423 199.731C387.423 199.731 378.372 207.058 376.808 207.124C376.586 207.124 376.516 207.345 376.549 207.698C372.742 207.698 360.902 208.25 364.186 214.846C367.168 220.824 375.564 216.688 379.362 214.403C380.257 216.141 381.02 217.503 381.02 217.503L396.535 206.455L399.894 203.628C401.032 203.573 402.157 203.356 403.234 202.982C403.234 203.025 403.267 203.067 403.281 203.105C403.401 203.451 403.491 203.808 403.55 204.17C404.492 209.583 401.326 222.21 401.326 222.21C401.326 222.21 394.363 239.967 397.708 242.389C401.053 244.81 398.579 255.029 398.579 255.029C399.163 256.012 399.835 256.939 400.586 257.8C400.941 258.209 401.334 258.583 401.76 258.916C401.604 259.34 401.475 259.772 401.373 260.212C400.862 262.389 401.055 264.672 401.925 266.733C404.224 272.311 402.824 280.396 402.824 280.396L398.311 310.888C396.144 310.558 393.345 310.285 392.304 310.888C390.707 311.788 391.23 316.325 394.937 318.276C393.812 319.137 392.508 319.738 391.121 320.033C387.823 320.787 385.505 321.267 383.979 321.559C383.88 321.559 376.064 319.835 374.056 320.975C372.049 322.115 373.015 328.438 378.725 329.988C384.313 331.501 405.152 333.72 411.154 332.815L411.536 332.749C416.638 331.741 412.158 325.036 411.592 324.221C411.555 323.948 411.522 323.661 411.484 323.35C411.404 322.652 411.333 321.852 411.281 320.994C416.973 321.517 422.589 321.771 425.166 321.385C425.288 321.385 425.402 321.347 425.505 321.324C430.023 320.429 426.066 314.502 425.557 313.786C425.535 313.603 425.511 313.41 425.486 313.206V313.154C425.486 313.018 425.453 312.872 425.439 312.73C425.425 312.589 425.439 312.49 425.402 312.363C425.364 312.235 425.402 312.137 425.369 312.019C425.35 311.786 425.331 311.546 425.312 311.298C425.312 311.199 425.312 311.095 425.312 310.992C425.312 310.803 425.288 310.615 425.279 310.422C425.279 310.318 425.279 310.214 425.279 310.106C425.279 309.823 425.279 309.531 425.251 309.239C425.251 309.159 425.251 309.079 425.251 308.999C425.251 308.763 425.251 308.528 425.251 308.283C425.251 308.17 425.251 308.056 425.251 307.939C425.251 307.689 425.251 307.439 425.251 307.185C425.251 307.1 425.251 307.02 425.251 306.935C425.251 306.619 425.279 306.294 425.298 305.969L425.326 305.621C425.326 305.38 425.364 305.15 425.387 304.905C425.387 304.787 425.387 304.669 425.425 304.551C425.463 304.221 425.505 303.892 425.552 303.557C425.552 303.458 425.585 303.359 425.599 303.26C425.642 303.011 425.684 302.756 425.731 302.502C425.731 302.379 425.778 302.252 425.807 302.125C425.863 301.852 425.925 301.578 425.99 301.305C425.99 301.23 426.023 301.154 426.042 301.079C426.127 300.749 426.221 300.424 426.32 300.099C426.353 299.986 426.391 299.873 426.429 299.76C426.509 299.515 426.594 299.288 426.683 299.034L426.796 298.733C426.923 298.412 427.06 298.097 427.201 297.79C427.239 297.71 427.281 297.63 427.324 297.55C427.442 297.305 427.569 297.079 427.701 296.824L427.861 296.546C428.04 296.245 428.224 295.943 428.426 295.656C433.609 288.268 434.975 274.021 434.848 270.921C434.721 267.821 435.465 261.39 436.393 260.438C437.015 259.802 440.634 254.784 442.796 250.968C443.187 250.271 443.526 249.616 443.795 249.032C445.331 248.499 446.349 248.089 446.349 248.089C445.807 246.111 445.547 244.067 445.576 242.016C445.614 238.007 446.716 232.725 451.267 228.438C457.986 222.106 458.923 215.83 459.013 213.418C459.013 213.248 459.013 213.098 459.013 212.97C458.999 212.528 458.975 212.311 458.975 212.311Z" fill="url(#paint0_linear)"/>
<path d="M441.072 251.826C439.248 255.084 437.202 258.212 434.947 261.187C434.061 262.13 433.35 268.495 433.472 271.552C433.595 274.61 432.299 288.707 427.347 296.009C422.396 303.312 424.94 315.934 424.94 315.934L417.039 318.704H407.545L401.006 316.749L399.281 311.991C399.281 311.991 401.58 311.637 407.291 310.28C410.546 309.618 412.962 306.87 413.204 303.557L417.213 275.557C417.213 275.557 418.396 268.49 416.445 263.6C415.332 260.81 415.568 257.663 417.086 255.072L417.213 254.874C417.213 254.874 423.399 249.988 429.703 246.93C435.286 244.236 440.949 242.954 442.556 247.736C442.763 248.353 442.085 249.941 441.072 251.826Z" fill="#A5636D"/>
<path opacity="0.05" d="M441.072 251.826C439.248 255.084 437.202 258.212 434.947 261.187C434.061 262.13 433.35 268.495 433.472 271.552C433.595 274.61 432.299 288.707 427.347 296.009C423.861 301.159 424.092 308.942 424.52 313.093C424.704 314.832 424.93 315.92 424.93 315.92L417.029 318.69H407.545L401.006 316.749L399.281 311.991C399.281 311.991 399.856 311.901 401.166 311.647C402.476 311.392 404.464 310.959 407.319 310.28C410.563 309.606 412.965 306.862 413.204 303.557L417.213 275.557C417.213 275.557 418.396 268.49 416.445 263.6C415.332 260.81 415.568 257.663 417.086 255.072L417.213 254.874C417.213 254.874 423.399 249.988 429.703 246.93C435.286 244.236 440.949 242.954 442.556 247.736C442.763 248.353 442.085 249.941 441.072 251.826Z" fill="black"/>
<path opacity="0.1" d="M424.94 315.939L417.039 318.709H407.545L401.006 316.749L399.281 311.991C399.281 311.991 399.856 311.901 401.166 311.647C400.974 313.436 402.15 315.087 403.903 315.491L407.616 315.618C408.139 315.618 408.666 315.647 409.185 315.647C414.407 315.649 419.593 314.788 424.534 313.098C424.723 314.836 424.94 315.939 424.94 315.939Z" fill="black"/>
<path d="M407.612 316.419L403.894 316.292C403.894 316.292 400.427 315.557 401.275 311.623C401.275 311.623 394.585 310.106 392.874 311.109C391.164 312.113 391.989 317.649 396.823 319.006C401.534 320.33 419.183 322.276 424.257 321.479L424.582 321.423C429.181 320.481 424.582 313.885 424.582 313.885C419.126 315.752 413.376 316.611 407.612 316.419Z" fill="#BEBED0"/>
<path d="M430.504 252.909C430.255 253.409 429.986 253.927 429.68 254.469C427.348 258.709 423.607 264.047 422.952 264.74C421.953 265.804 421.157 272.985 421.284 276.452C421.411 279.92 419.96 295.807 414.373 304.052C411.513 308.292 410.867 314.064 410.914 318.709C410.928 320.283 411.021 321.856 411.192 323.42C411.4 325.338 411.663 326.535 411.663 326.535L402.749 329.658H392.022L384.639 327.463L382.707 322.073C382.707 322.073 383.352 321.969 384.804 321.682C386.255 321.395 388.516 320.914 391.748 320.151C395.412 319.393 398.13 316.297 398.406 312.565L402.924 280.966C402.924 280.966 404.257 272.98 402.062 267.468C401.233 265.422 401.049 263.171 401.534 261.018C401.797 259.808 402.275 258.656 402.947 257.616C402.947 257.616 404.672 256.259 407.272 254.464C408.422 253.673 409.755 252.796 411.188 251.91C417.482 248.014 425.76 244.038 429.727 246.935C430.602 247.595 431.243 248.518 431.555 249.569C431.715 250.115 431.268 251.355 430.504 252.909Z" fill="#A5636D"/>
<path opacity="0.1" d="M411.64 326.539L402.726 329.663H392.022L384.639 327.468L382.707 322.078C382.707 322.078 383.352 321.974 384.804 321.687C384.615 322.984 385.085 324.289 386.057 325.168C386.8 325.8 387.739 326.153 388.714 326.167L392.092 326.276C392.681 326.276 393.275 326.309 393.864 326.309C399.759 326.307 405.614 325.333 411.192 323.425C411.4 325.343 411.64 326.539 411.64 326.539Z" fill="black"/>
<path d="M392.087 327.076L388.714 326.963C387.738 326.947 386.798 326.594 386.052 325.965C385.194 325.201 384.454 323.882 384.935 321.663C384.935 321.663 377.397 319.953 375.451 321.084C373.505 322.214 374.457 328.466 379.908 329.998C385.246 331.491 405.147 333.687 410.876 332.791L411.239 332.725C416.422 331.661 411.239 324.207 411.239 324.207C405.083 326.322 398.592 327.294 392.087 327.076Z" fill="#BEBED0"/>
<path opacity="0.1" d="M441.072 251.826C437.845 252.952 433.105 254.445 430.504 254.506C430.235 254.517 429.966 254.504 429.699 254.469C427.88 254.219 422.259 254.62 417.105 255.081C415.037 255.265 413.048 255.458 411.404 255.628C408.954 255.882 407.268 256.066 407.268 256.066V254.469C408.417 253.677 409.75 252.801 411.183 251.915C417.477 248.019 425.755 244.042 429.722 246.94C435.305 244.245 440.968 242.963 442.575 247.746C442.763 248.353 442.085 249.941 441.072 251.826Z" fill="black"/>
<path d="M456.558 214.667C456.469 217.055 455.573 223.255 449.156 229.522C440.977 237.508 444.445 248.975 444.445 248.975C444.445 248.975 434.692 252.806 430.485 252.909C430.216 252.92 429.946 252.907 429.679 252.871C427.154 252.518 417.128 253.446 411.366 254.03C408.916 254.285 407.229 254.469 407.229 254.469V220.546L452.426 209.573L456.52 213.649C456.556 213.987 456.569 214.327 456.558 214.667Z" fill="#5C5C8E"/>
<g opacity="0.1">
<path d="M407.993 254.049L407.249 254.13V254.488C407.249 254.488 408.936 254.304 411.386 254.049C415.522 253.63 421.84 253.041 426.019 252.867C423.127 252.603 413.572 253.484 407.993 254.049Z" fill="black"/>
<path d="M456.54 213.668L452.445 209.588L449.718 210.271L453.147 213.687C453.171 214.027 453.171 214.369 453.147 214.709C453.058 217.093 452.163 223.298 445.746 229.564C437.567 237.545 441.034 249.018 441.034 249.018C441.034 249.018 432.964 252.184 428.342 252.839C428.783 252.837 429.223 252.861 429.661 252.909C429.928 252.946 430.197 252.961 430.467 252.952C434.674 252.848 444.427 249.018 444.427 249.018C444.427 249.018 440.94 237.545 449.138 229.564C455.555 223.298 456.45 217.093 456.54 214.709C456.564 214.362 456.564 214.014 456.54 213.668Z" fill="black"/>
</g>
<path d="M366.24 190.704C366.24 190.704 352.577 181.225 351.574 189.762C350.57 198.299 366.24 197.079 366.24 197.079V190.704Z" fill="#A5636D"/>
<path d="M389.798 184.419C389.798 184.419 382.405 189.31 378.316 189.008C378.316 189.008 367.14 190.506 365.84 189.757C364.54 189.008 363.748 200.594 363.748 200.594L382.123 199.298L393.901 197.498C393.901 197.498 399.79 193.908 399.79 190.813C399.79 187.717 389.798 184.419 389.798 184.419Z" fill="#F7CDDD"/>
<path opacity="0.05" d="M389.798 184.419C389.798 184.419 382.405 189.31 378.316 189.008C378.316 189.008 367.14 190.506 365.84 189.757C364.54 189.008 363.748 200.594 363.748 200.594L382.123 199.298L393.901 197.498C393.901 197.498 399.79 193.908 399.79 190.813C399.79 187.717 389.798 184.419 389.798 184.419Z" fill="black"/>
<path d="M378.956 209.088C378.956 209.088 362.339 208.4 366.061 216.155C369.783 223.91 382.377 214.497 382.377 214.497L378.956 209.088Z" fill="#A5636D"/>
<path d="M395.673 192.603C395.673 192.603 382.203 182.525 384.101 170.252C386 157.979 395.673 179.647 395.673 179.647V192.603Z" fill="#5C5C8E"/>
<path d="M391.95 136.961C391.946 141.376 390.228 145.617 387.159 148.791C386.412 149.571 385.588 150.274 384.699 150.888C383.003 152.071 381.112 152.945 379.112 153.47C378.317 153.668 377.509 153.812 376.695 153.899C376.11 153.955 375.522 153.988 374.923 153.988C373.012 153.999 371.114 153.68 369.312 153.046C361.127 150.189 356.395 141.639 358.322 133.186C360.248 124.734 368.217 119.078 376.832 120.05C385.446 121.022 391.955 128.311 391.95 136.98V136.961Z" fill="#A5636D"/>
<path opacity="0.1" d="M456.558 214.667C455.031 214.949 453.147 215.458 453.147 216.25C453.147 217.583 431.861 224.768 431.861 224.768C431.861 224.768 432.657 226.624 430.532 229.818C428.407 233.013 411.107 251.369 411.107 251.369L411.163 251.915L411.385 254.03L412.44 264.141C412.44 264.141 405.788 261.748 403.658 262.012C402.97 262.101 402.245 261.658 401.533 261.022C401.796 259.813 402.275 258.66 402.947 257.621C402.947 257.621 404.671 256.264 407.272 254.469V220.546L452.468 209.573L456.563 213.649C456.584 213.988 456.582 214.328 456.558 214.667Z" fill="black"/>
<path d="M458.472 212.791C458.472 212.791 453.148 213.319 453.148 214.652C453.148 215.986 431.861 223.171 431.861 223.171C431.861 223.171 432.658 225.027 430.533 228.221C428.408 231.416 411.108 249.776 411.108 249.776L412.441 262.544C412.441 262.544 405.788 260.151 403.659 260.415C402.717 260.532 401.656 259.656 400.785 258.634C400.065 257.781 399.423 256.865 398.867 255.896C398.867 255.896 401.265 245.781 398.071 243.387C394.877 240.994 401.529 223.435 401.529 223.435C401.529 223.435 404.535 210.949 403.649 205.592C403.594 205.234 403.509 204.881 403.395 204.537C403.395 204.499 403.371 204.457 403.357 204.419C401.473 199.303 381.044 156.363 381.044 156.363C381.057 155.145 381.142 153.929 381.298 152.721C381.341 152.386 381.397 152.038 381.459 151.684C381.562 151.049 381.701 150.42 381.873 149.8C381.981 149.402 382.11 149.011 382.259 148.627C382.891 147.006 383.857 145.757 385.298 145.729C385.298 145.729 386.896 143.962 390.641 143.482C393.383 143.124 397.298 143.482 402.599 145.729C415.098 151.044 418.029 151.317 418.029 151.317L424.309 159.562L425.6 161.253C430.332 167.425 434.616 173.928 438.42 180.711C440.512 184.481 443.475 188.857 447.027 191.491C454.212 196.829 458.472 212.791 458.472 212.791Z" fill="#F7CDDD"/>
<path opacity="0.1" d="M411.838 182.026C411.838 182.026 429.6 186.417 436.483 197.489L411.838 182.026Z" fill="black"/>
<path opacity="0.1" d="M417.326 201.479C417.326 201.479 420.685 224.033 419.753 225.729C418.82 227.425 417.326 201.479 417.326 201.479Z" fill="black"/>
<path opacity="0.1" d="M416.125 213.055C414.834 214.747 409.59 227.821 409.59 227.821L411.102 249.776L412.436 262.544C412.436 262.544 405.788 260.151 403.658 260.415C402.716 260.532 401.651 259.656 400.784 258.634C402.165 251.157 405.119 235.51 405.651 235.208C406.353 234.808 409.948 222.238 410.136 218.718C410.325 215.199 415.319 207.354 415.319 207.354C415.319 207.354 417.425 211.364 416.125 213.055Z" fill="black"/>
<path opacity="0.1" d="M411.108 191.505C410.778 192.499 410.269 198.29 410.269 198.29C409.901 203.387 406.029 205.055 403.649 205.592C403.594 205.234 403.509 204.881 403.395 204.537C401.798 200.019 381.044 156.382 381.044 156.382C381.066 154.168 381.344 151.964 381.873 149.814C386.391 148.485 393.543 150.53 393.543 150.53C395.612 150.257 402.358 163.67 402.358 163.67C402.358 163.67 406.853 173.941 407.348 175.34C407.843 176.74 407.348 179.034 407.546 179.835C407.744 180.636 409.845 181.324 410.142 182.426C410.439 183.529 410.245 185.724 410.443 186.115C410.641 186.506 411.442 190.506 411.108 191.505Z" fill="black"/>
<path d="M409.511 190.704C409.181 191.703 408.672 197.489 408.672 197.489C408.37 201.729 405.638 203.614 403.357 204.419C402.33 204.787 401.253 205.001 400.163 205.055L396.955 207.844L382.137 218.751C382.137 218.751 376.615 208.542 378.114 208.485C379.612 208.429 388.253 201.173 388.253 201.173C390.896 199.76 393.544 195.048 394.773 192.627C394.702 192.338 394.649 192.045 394.613 191.75C394.081 187.232 382.905 169.932 382.905 169.932C382.905 169.932 378.585 164.848 376.903 155.43C376.856 155.213 376.823 154.992 376.78 154.766C376.733 154.472 376.704 154.177 376.696 153.88C376.493 150.257 379.131 148.938 382.26 148.627C383.894 148.497 385.537 148.547 387.16 148.777C388.777 148.981 390.377 149.296 391.951 149.72C393.289 149.541 396.587 155.105 398.75 159.048C399.913 161.187 400.752 162.855 400.752 162.855C400.752 162.855 405.247 173.131 405.741 174.525C406.236 175.92 405.741 178.224 405.939 179.02C406.137 179.816 408.239 180.513 408.535 181.616C408.832 182.718 408.639 184.914 408.837 185.305C409.035 185.696 409.845 189.705 409.511 190.704Z" fill="#F7CDDD"/>
<path opacity="0.1" d="M426.697 167.684C423.87 170.572 419.305 170.582 415.64 169.098C411.974 167.614 408.869 164.956 405.472 162.888C403.267 161.541 400.93 160.438 398.758 159.048C398.438 158.841 398.127 158.634 397.816 158.417C395.31 156.645 393.138 154.37 390.542 152.763C388.805 151.608 386.783 150.956 384.7 150.879C383.74 150.87 382.79 151.069 381.915 151.463C381.753 151.529 381.595 151.606 381.444 151.694C380.589 152.184 379.798 152.777 379.088 153.461C378.353 154.12 377.651 154.822 376.879 155.439C376.832 155.223 376.799 155.001 376.756 154.775C376.708 154.482 376.68 154.186 376.671 153.889C376.087 153.946 375.498 153.979 374.9 153.979C372.989 153.99 371.091 153.671 369.289 153.037C369.289 152.966 369.289 152.895 369.246 152.824C368.61 149.47 367.46 145.918 364.761 144.033C363.197 142.94 360.7 142.492 358.532 141.677C356.469 134.495 359.33 126.807 365.586 122.721C371.842 118.634 380.032 119.104 385.779 123.88C391.527 128.656 393.489 136.621 390.617 143.519C393.359 143.161 397.274 143.519 402.575 145.767C415.074 151.081 418.005 151.355 418.005 151.355L424.285 159.6C423.607 160.636 422.839 161.658 422.768 162.869C422.65 165.088 424.813 166.638 426.697 167.684Z" fill="black"/>
<path d="M364.779 142.426C367.479 144.311 368.629 147.859 369.269 151.208C369.467 152.254 369.656 153.357 370.297 154.186C371.71 156.042 374.612 155.519 376.483 154.186C378.353 152.853 379.828 150.832 381.915 149.889C384.685 148.636 387.946 149.55 390.542 151.176C393.138 152.801 395.309 155.077 397.816 156.829C400.242 158.539 402.947 159.76 405.472 161.3C408.869 163.369 411.974 166.04 415.639 167.51C419.305 168.98 423.884 168.975 426.692 166.097C424.808 165.051 422.645 163.505 422.791 161.263C422.937 159.02 425.547 157.347 425.373 155.048C425.199 152.749 422.494 151.849 420.553 150.718C416.501 148.363 414.772 143.18 413.905 138.398C413.232 134.657 412.676 130.478 409.882 128.075C408.077 126.53 405.642 126.026 403.823 124.495C402.103 123.039 401.147 120.839 400.054 118.808C398.249 115.43 395.88 112.287 392.746 110.266C389.613 108.245 385.627 107.439 382.188 108.825C380.869 109.347 379.668 110.158 378.367 110.709C375.126 112.123 371.418 111.92 368.209 113.395C364.256 115.213 361.689 119.227 359.338 123.039C357.35 126.304 353.406 132.061 354.523 136.302C355.635 140.612 361.849 140.382 364.779 142.426Z" fill="#4C3E42"/>
<g opacity="0.1">
<path d="M425.369 154.789C425.354 154.614 425.324 154.441 425.279 154.271C424.563 155.397 423.673 156.49 423.588 157.809C423.569 158.114 423.595 158.42 423.663 158.718C424.459 157.451 425.482 156.259 425.369 154.789Z" fill="black"/>
<path d="M416.436 164.071C412.771 162.601 409.671 159.929 406.274 157.861C403.744 156.32 401.039 155.1 398.613 153.39C396.106 151.618 393.934 149.343 391.338 147.736C388.742 146.129 385.487 145.197 382.712 146.445C380.625 147.387 379.155 149.39 377.279 150.747C375.404 152.104 372.53 152.631 371.093 150.747C370.453 149.917 370.264 148.815 370.066 147.769C369.43 144.419 368.276 140.871 365.581 138.987C362.646 136.937 356.431 137.168 355.305 132.862C355.118 132.092 355.068 131.294 355.159 130.506C354.439 132.429 354.066 134.36 354.504 136.042C355.635 140.367 361.85 140.137 364.78 142.167C367.48 144.052 368.629 147.604 369.27 150.954C369.468 152 369.656 153.102 370.292 153.932C371.706 155.788 374.608 155.265 376.483 153.908C378.358 152.551 379.824 150.553 381.916 149.611C384.686 148.363 387.946 149.277 390.542 150.902C393.138 152.528 395.31 154.803 397.817 156.556C400.243 158.271 402.947 159.486 405.473 161.027C408.87 163.1 411.974 165.771 415.64 167.241C419.305 168.711 423.885 168.702 426.693 165.828C425.967 165.438 425.277 164.982 424.634 164.466C422.08 165.404 419.032 165.112 416.436 164.071Z" fill="black"/>
</g>
<path d="M333.048 196.297L370.74 182.219C371.63 181.885 372.617 181.919 373.482 182.313C374.347 182.707 375.02 183.429 375.352 184.32C375.685 185.211 375.65 186.198 375.255 187.063C374.86 187.928 374.137 188.6 373.246 188.933L335.555 203.015L327.479 202.205L333.048 196.297Z" fill="#5C5C8E"/>
<path opacity="0.1" d="M374.207 183.19C374.9 185.046 373.957 187.113 372.101 187.807L334.41 201.884L328.341 201.277L327.47 202.219L335.545 203.029L373.237 188.947C374.127 188.615 374.85 187.942 375.245 187.077C375.64 186.212 375.675 185.225 375.343 184.334C375.066 183.592 374.551 182.962 373.877 182.544C374.007 182.749 374.117 182.965 374.207 183.19Z" fill="white"/>
<path d="M333.048 196.297L335.56 203.015L328.931 202.351L327.479 202.205L329.463 200.104L333.048 196.297Z" fill="#EFC8C4"/>
<path d="M329.459 200.104C329.615 200.218 329.746 200.362 329.845 200.528C329.973 200.727 329.973 200.983 329.845 201.183C329.736 201.287 329.613 201.375 329.477 201.442C329.168 201.646 328.969 201.981 328.94 202.351L327.489 202.205L329.459 200.104Z" fill="#727A9C"/>
<path d="M300.148 123.5L293.793 120.4C293.609 120.311 293.469 120.153 293.403 119.96C293.337 119.767 293.35 119.556 293.439 119.373L294.113 117.988C294.201 117.804 294.36 117.663 294.553 117.597C294.746 117.53 294.957 117.544 295.14 117.635L299.423 119.722L303.894 110.553C304.08 110.173 304.538 110.013 304.921 110.195L306.306 110.874C306.49 110.962 306.631 111.121 306.697 111.314C306.764 111.507 306.75 111.718 306.659 111.901L301.175 123.147C301.086 123.33 300.928 123.47 300.735 123.537C300.542 123.603 300.331 123.59 300.148 123.5Z" fill="#3ACC6C"/>
<path d="M314.033 163.157L307.677 160.057C307.494 159.967 307.354 159.809 307.288 159.616C307.222 159.424 307.235 159.212 307.324 159.029L307.998 157.644C308.186 157.262 308.647 157.104 309.029 157.291L313.307 159.378L317.774 150.2C317.96 149.819 318.418 149.66 318.801 149.842L320.181 150.521C320.365 150.609 320.506 150.767 320.574 150.96C320.641 151.153 320.629 151.364 320.539 151.548L315.055 162.794C314.866 163.174 314.406 163.331 314.024 163.147L314.033 163.157Z" fill="#3ACC6C"/>
<path d="M307.8 143.609L301.444 140.509C301.063 140.323 300.904 139.864 301.086 139.482L301.765 138.097C301.853 137.913 302.011 137.772 302.204 137.705C302.397 137.639 302.609 137.652 302.792 137.743L307.075 139.83L311.546 130.648C311.635 130.465 311.793 130.325 311.986 130.258C312.179 130.192 312.39 130.205 312.573 130.294L313.958 130.968C314.338 131.158 314.495 131.617 314.311 132L308.822 143.256C308.733 143.439 308.575 143.579 308.382 143.645C308.189 143.711 307.978 143.698 307.795 143.609H307.8Z" fill="#3ACC6C"/>
<path d="M320.063 181.06L313.708 177.96C313.524 177.871 313.384 177.712 313.318 177.519C313.252 177.327 313.265 177.116 313.354 176.933L314.028 175.548C314.117 175.365 314.276 175.224 314.468 175.158C314.661 175.092 314.872 175.105 315.055 175.194L319.338 177.281L323.809 168.113C323.997 167.731 324.457 167.572 324.841 167.755L326.221 168.433C326.405 168.522 326.546 168.68 326.612 168.873C326.679 169.066 326.665 169.278 326.574 169.46L321.095 180.707C320.905 181.086 320.446 181.244 320.063 181.06Z" fill="#3ACC6C"/>
<path d="M82.4478 302.784C82.4478 302.784 85.2511 306.45 81.1569 311.981C77.0627 317.512 73.6799 322.186 75.032 325.644C75.032 325.644 81.2134 315.369 86.2405 315.227C91.2676 315.086 87.979 308.966 82.4478 302.784Z" fill="#3ACC6C"/>
<path opacity="0.1" d="M82.4481 302.784C82.6935 303.138 82.887 303.525 83.0229 303.934C87.9275 309.701 90.5612 315.081 85.8262 315.241C81.4304 315.364 76.1583 323.223 74.9004 325.206C74.9383 325.366 74.9871 325.524 75.0464 325.677C75.0464 325.677 81.2278 315.402 86.2549 315.26C91.282 315.119 87.9793 308.966 82.4481 302.784Z" fill="black"/>
<path d="M87.6582 307.458C87.6582 308.744 87.5121 309.814 87.3331 309.814C87.154 309.814 87.0127 308.768 87.0127 307.458C87.0127 306.148 87.1917 306.775 87.3708 306.775C87.5498 306.775 87.6582 306.167 87.6582 307.458Z" fill="#FFD037"/>
<path d="M89.4442 308.994C88.3134 309.611 87.324 309.988 87.2392 309.828C87.1544 309.668 88.0025 309.046 89.1238 308.414C90.2451 307.783 89.807 308.245 89.8918 308.414C89.9766 308.584 90.5796 308.377 89.4442 308.994Z" fill="#FFD037"/>
<path d="M67.6446 302.784C67.6446 302.784 64.846 306.45 68.9403 311.981C73.0345 317.512 76.4126 322.186 75.0651 325.644C75.0651 325.644 68.8884 315.369 63.8566 315.227C58.8248 315.086 62.1134 308.966 67.6446 302.784Z" fill="#3ACC6C"/>
<path opacity="0.1" d="M67.6449 302.784C67.4023 303.139 67.2104 303.526 67.0748 303.934C62.1655 309.701 59.5365 315.081 64.2715 315.241C68.6625 315.364 73.9346 323.223 75.1973 325.206C75.1578 325.366 75.1074 325.524 75.0465 325.677C75.0465 325.677 68.8698 315.359 63.8286 315.218C58.7874 315.077 62.1136 308.966 67.6449 302.784Z" fill="black"/>
<path d="M62.4385 307.458C62.4385 308.744 62.5798 309.814 62.7589 309.814C62.9379 309.814 63.0839 308.768 63.0839 307.458C63.0839 306.148 62.9049 306.775 62.7259 306.775C62.5468 306.775 62.4385 306.167 62.4385 307.458Z" fill="#FFD037"/>
<path d="M60.6483 308.994C61.7838 309.611 62.7685 309.988 62.8533 309.828C62.9381 309.668 62.09 309.046 60.9687 308.414C59.8474 307.783 60.2808 308.245 60.196 308.414C60.1112 308.584 59.5176 308.377 60.6483 308.994Z" fill="#FFD037"/>
<path opacity="0.1" d="M75.0504 353.668C91.2325 353.668 104.351 351.655 104.351 349.173C104.351 346.691 91.2325 344.678 75.0504 344.678C58.8682 344.678 45.75 346.691 45.75 349.173C45.75 351.655 58.8682 353.668 75.0504 353.668Z" fill="#FFAB2B"/>
<path d="M90.1269 320.697L89.9856 321.842L89.7924 323.458L89.7076 324.132L89.5144 325.748L89.4249 326.422L89.2317 328.038L86.9891 346.412C86.7865 348.052 84.1057 349.333 80.8642 349.333H69.2223C65.9856 349.333 63.3095 348.052 63.0975 346.412L60.8548 328.038L60.6569 326.422L60.5768 325.748L60.3743 324.132L60.2942 323.458L60.0963 321.842L59.9549 320.697C59.8466 319.755 61.293 318.982 63.1257 318.982H86.9608C88.7983 318.982 90.2447 319.769 90.1269 320.697Z" fill="#65617D"/>
<path d="M89.9912 321.842L89.7933 323.458H60.3045L60.1113 321.842H89.9912Z" fill="#9D9CB5"/>
<path d="M89.7126 324.132L89.5147 325.748H60.5866L60.3887 324.132H89.7126Z" fill="#9D9CB5"/>
<path d="M89.4302 326.422L89.2324 328.038H60.8649L60.667 326.422H89.4302Z" fill="#9D9CB5"/>
<defs>
<linearGradient id="paint0_linear" x1="461.015" y1="332.999" x2="461.015" y2="105.621" gradientUnits="userSpaceOnUse">
<stop stop-color="#808080" stop-opacity="0.25"/>
<stop offset="0.54" stop-color="#808080" stop-opacity="0.12"/>
<stop offset="1" stop-color="#808080" stop-opacity="0.1"/>
</linearGradient>
</defs>
</svg>
